# xmcd
#
# Track frame offsets: 
#        150
#        20230
#        31603
#        50115
#        65528
#        77463
#        89142
#        107626
#        122369
#        140889
#
# Disc length: 2019 seconds
#
# Revision: 0
# Processed by: cddbd v1.5.2PL0 Copyright (c) Steve Scherf et al.
# Submitted via: ExactAudioCopy v1.3
#
DISCID=8807e10a
DTITLE=Lloyd Spiegel - This Time Tomorrow
DYEAR=2017
DGENRE=Blues
TTITLE0=Devil On My Shoulder
TTITLE1=All The Cats Are Grey
TTITLE2=This Time Tomorrow
TTITLE3=Stranger Things
TTITLE4=Kansas City Katy
TTITLE5=Lost Like Me
TTITLE6=Cure My Soul
TTITLE7=Trigger
TTITLE8=Into The Blue
TTITLE9=Call You When I Get There
EXTD=
EXTT0=
EXTT1=
EXTT2=
EXTT3=
EXTT4=
EXTT5=
EXTT6=
EXTT7=
EXTT8=
EXTT9=
PLAYORDER=
